<svg xmlns="http://www.w3.org/2000/svg" viewBox="0 0 144.29 143.33"><defs><style>.cls-1{fill:#e6c68f;}.cls-2{fill:#bbb;}</style></defs><g id="Layer_2" data-name="Layer 2"><g id="Layer_1-2" data-name="Layer 1"><path class="cls-1" d="M111.82,127.55a1.77,1.77,0,0,1,1.25,3.21,72.17,72.17,0,0,1-77.41,2.54,1.77,1.77,0,0,1-.83-1.16,44,44,0,0,1-.91-7.33,44.44,44.44,0,0,1,13.53-33.9,1.77,1.77,0,0,1,2.87.67,56.92,56.92,0,0,0,55.55,36.53A57.92,57.92,0,0,0,111.82,127.55Z"/><path class="cls-1" d="M137.57,49.64A1.76,1.76,0,0,1,141,49.4a72.15,72.15,0,0,1-20.2,74.76,1.77,1.77,0,0,1-1.35.45,43.22,43.22,0,0,1-7.28-1.27,44.45,44.45,0,0,1-28.46-22.85A1.76,1.76,0,0,1,85.19,98,56.92,56.92,0,0,0,136.36,55.5,58.07,58.07,0,0,0,137.57,49.64Z"/><path class="cls-1" d="M29.8,125.71a1.77,1.77,0,0,1-2.72,2.13A72.19,72.19,0,0,1,2,54.56a1.81,1.81,0,0,1,.86-1.14,45.73,45.73,0,0,1,6.75-3,44.48,44.48,0,0,1,36.37,3,1.77,1.77,0,0,1,.2,2.94A56.94,56.94,0,0,0,29.8,125.71Z"/><rect class="cls-2" x="55.19" y="54.82" width="32.76" height="32.76" rx="7.93" transform="translate(-29.38 71.46) rotate(-45)"/><path class="cls-2" d="M117.37,19.31a1.86,1.86,0,0,1-1.19-.47,62.5,62.5,0,0,0-13.63-9.2,66.51,66.51,0,0,0-21.07-6.4A1.68,1.68,0,0,1,80,1.39,1.74,1.74,0,0,1,82,0a70.24,70.24,0,0,1,22.27,6.77,66,66,0,0,1,14.42,9.73,1.53,1.53,0,0,1,0,2.3A1.86,1.86,0,0,1,117.37,19.31Z"/><path class="cls-1" d="M137,40.06a70.84,70.84,0,0,0-7.25-12,2.48,2.48,0,0,0-3.32-.63c-.92.56-2,1.69-3.21,2.29-.85.45-1.45-.31-2.16-1-3.37-3-12.52-10.83-21.37-14.51C77.06,4.82,53.26.71,32.27,12.62A63.32,63.32,0,0,0,15.56,26.36c-1.73,2.63-3.76,5-5.38,7.75a86.7,86.7,0,0,0-5.48,11v0c.79,2.71,2.8,1.53,4,.47,11-9.5,25.86-14.06,40.32-13.4,14.93.69,29.23,7.24,40.26,17.2a82.86,82.86,0,0,1,9,9.84c2,2.49,4.72,7.88,8.37,8A5.89,5.89,0,0,0,109,66.7c6.3-2.43,20.39-9.56,28-25.21A1.71,1.71,0,0,0,137,40.06Zm-17,1.64a.71.71,0,0,1-.44.15.65.65,0,0,1-.52-.25,21.87,21.87,0,0,0-7.81-6.05.68.68,0,0,1,.58-1.24A23.39,23.39,0,0,1,120,40.74.68.68,0,0,1,119.9,41.7Z"/><path class="cls-2" d="M137.13,14.6a6.49,6.49,0,1,1,6.49-6.48A6.49,6.49,0,0,1,137.13,14.6Zm0-12.29a5.81,5.81,0,1,0,5.81,5.81A5.82,5.82,0,0,0,137.13,2.31Z"/><path class="cls-2" d="M134.28,4.27h1.26V12h-1.26Zm.52,3.31h2.65a.83.83,0,0,0,.47-.13.89.89,0,0,0,.32-.37,1.35,1.35,0,0,0,.11-.55,1.31,1.31,0,0,0-.11-.55.81.81,0,0,0-.31-.37.86.86,0,0,0-.48-.13H134.8V4.27h2.69a2.24,2.24,0,0,1,1.14.28,2,2,0,0,1,.77.79,2.52,2.52,0,0,1,.27,1.19,2.54,2.54,0,0,1-.27,1.19,2,2,0,0,1-.77.79,2.24,2.24,0,0,1-1.14.28H134.8Zm1.86,1L138,8.31,140,12h-1.52Z"/></g></g></svg>